<mxfile host="65bd71144e">
    <diagram id="bAAXgGwKLryCuVSAvFsi" name="Page-1">
        <mxGraphModel dx="3362" dy="3280" grid="0" gridSize="10" guides="1" tooltips="1" connect="1" arrows="1" fold="1" page="0" pageScale="1" pageWidth="850" pageHeight="1100" math="0" shadow="0">
            <root>
                <mxCell id="0"/>
                <mxCell id="1" parent="0"/>
                <mxCell id="7TFr1C6rGWP-Rq-zpPYZ-134" style="edgeStyle=orthogonalEdgeStyle;rounded=0;orthogonalLoop=1;jettySize=auto;html=1;endArrow=classic;endFill=1;endSize=16;strokeWidth=1;" parent="1" source="7TFr1C6rGWP-Rq-zpPYZ-3" target="7TFr1C6rGWP-Rq-zpPYZ-121" edge="1">
                    <mxGeometry relative="1" as="geometry"/>
                </mxCell>
                <mxCell id="7TFr1C6rGWP-Rq-zpPYZ-3" value="THREE.Object3D" style="swimlane;fontStyle=1;align=center;verticalAlign=top;childLayout=stackLayout;horizontal=1;startSize=26;horizontalStack=0;resizeParent=1;resizeParentMax=0;resizeLast=0;collapsible=1;marginBottom=0;" parent="1" vertex="1">
                    <mxGeometry x="10" y="10" width="300" height="718" as="geometry"/>
                </mxCell>
                <mxCell id="7TFr1C6rGWP-Rq-zpPYZ-4" value="position: Vector3&#10;scale: Vector3&#10;quaternion: Quaternion&#10;name: String&#10;type='Object3D'&#10;parent: Object&#10;children: [Object]" style="text;strokeColor=none;fillColor=none;align=left;verticalAlign=top;spacingLeft=4;spacingRight=4;overflow=hidden;rotatable=0;points=[[0,0.5],[1,0.5]];portConstraint=eastwest;" parent="7TFr1C6rGWP-Rq-zpPYZ-3" vertex="1">
                    <mxGeometry y="26" width="300" height="104" as="geometry"/>
                </mxCell>
                <mxCell id="7TFr1C6rGWP-Rq-zpPYZ-5" value="" style="line;strokeWidth=1;fillColor=none;align=left;verticalAlign=middle;spacingTop=-1;spacingLeft=3;spacingRight=3;rotatable=0;labelPosition=right;points=[];portConstraint=eastwest;" parent="7TFr1C6rGWP-Rq-zpPYZ-3" vertex="1">
                    <mxGeometry y="130" width="300" height="8" as="geometry"/>
                </mxCell>
                <mxCell id="7TFr1C6rGWP-Rq-zpPYZ-6" value="applyMatrix4(matrix)&#10;applyQuaternion(q)&#10;setRotationFromAxisAngle(axis, angle)&#10;setRotationFromEuler(euler)&#10;setRotationFromMatrix(m)&#10;setRotationFromQuaternion(q)&#10;rotateOnAxis( axis, angle )&#10;rotateOnWorldAxis( axis, angle )&#10;rotateX( angle )&#10;rotateY( angle )&#10;rotateZ( angle )&#10;translateOnAxis( axis, distance )&#10;translateX( distance )&#10;translateY( distance )&#10;translateZ( distance )&#10;localToWorld( vector )&#10;worldToLocal( vector )&#10;lookAt( x, y, z )&#10;add( object )&#10;remove( object )&#10;removeFromParent()&#10;clear()&#10;attach( object )&#10;getObjectById( id )&#10;getObjectByName( name )&#10;getObjectByProperty( name, value )&#10;getWorldPosition( target )&#10;getWorldQuaternion( target )&#10;getWorldScale( target )&#10;getWorldDirection( target )&#10;raycast( /* raycaster, intersects */ ) {}&#10;traverse( callback )&#10;traverseVisible( callback )&#10;traverseAncestors( callback )&#10;updateMatrix()&#10;updateMatrixWorld( force )&#10;updateWorldMatrix( updateParents, updateChildren )&#10;toJSON( meta )&#10;clone( recursive )&#10;copy( source, recursive = true )&#10;" style="text;strokeColor=none;fillColor=none;align=left;verticalAlign=top;spacingLeft=4;spacingRight=4;overflow=hidden;rotatable=0;points=[[0,0.5],[1,0.5]];portConstraint=eastwest;" parent="7TFr1C6rGWP-Rq-zpPYZ-3" vertex="1">
                    <mxGeometry y="138" width="300" height="580" as="geometry"/>
                </mxCell>
                <mxCell id="7TFr1C6rGWP-Rq-zpPYZ-13" style="edgeStyle=orthogonalEdgeStyle;rounded=0;orthogonalLoop=1;jettySize=auto;html=1;exitX=1;exitY=0.5;exitDx=0;exitDy=0;entryX=0;entryY=0.5;entryDx=0;entryDy=0;endSize=16;" parent="1" source="7TFr1C6rGWP-Rq-zpPYZ-4" target="7TFr1C6rGWP-Rq-zpPYZ-49" edge="1">
                    <mxGeometry relative="1" as="geometry">
                        <mxPoint x="500" y="88.99999999999989" as="targetPoint"/>
                    </mxGeometry>
                </mxCell>
                <mxCell id="7TFr1C6rGWP-Rq-zpPYZ-44" value="StdEnv" style="swimlane;fontStyle=1;align=center;verticalAlign=top;childLayout=stackLayout;horizontal=1;startSize=26;horizontalStack=0;resizeParent=1;resizeParentMax=0;resizeLast=0;collapsible=1;marginBottom=0;" parent="1" vertex="1">
                    <mxGeometry x="1835" y="-44.5" width="320" height="300" as="geometry"/>
                </mxCell>
                <mxCell id="7TFr1C6rGWP-Rq-zpPYZ-45" value="scene: THREE.Scene&#10;renderer:THREE.WebGLRenderer&#10;camera:THREE.PerspectiveCamera&#10;light:THREE.HemisphereLight&#10;controls: THREE.PointerLockControls&#10;player: Player&#10;otherPlayer: [PlayerAvatar]&#10;shadowLight: Object&#10;collider: THREE.Mesh (As BVH)" style="text;strokeColor=none;fillColor=none;align=left;verticalAlign=top;spacingLeft=4;spacingRight=4;overflow=hidden;rotatable=0;points=[[0,0.5],[1,0.5]];portConstraint=eastwest;" parent="7TFr1C6rGWP-Rq-zpPYZ-44" vertex="1">
                    <mxGeometry y="26" width="320" height="144" as="geometry"/>
                </mxCell>
                <mxCell id="7TFr1C6rGWP-Rq-zpPYZ-46" value="" style="line;strokeWidth=1;fillColor=none;align=left;verticalAlign=middle;spacingTop=-1;spacingLeft=3;spacingRight=3;rotatable=0;labelPosition=right;points=[];portConstraint=eastwest;" parent="7TFr1C6rGWP-Rq-zpPYZ-44" vertex="1">
                    <mxGeometry y="170" width="320" height="8" as="geometry"/>
                </mxCell>
                <mxCell id="GosrUJCcwg7DmdABZyiW-18" value="init(terrainPath, avatarPath, x, y, z)&#10;setShadowLightTier(graphicTier)&#10;setGraphicsSetting(graphicTier)&#10;increaseGraphicSettings()&#10;getLocation()&#10;spawnOtherPlayer(avatarPath)&#10;moveOtherPlayer(x,y,z)&#10;update()" style="text;strokeColor=none;fillColor=none;align=left;verticalAlign=top;spacingLeft=4;spacingRight=4;overflow=hidden;rotatable=0;points=[[0,0.5],[1,0.5]];portConstraint=eastwest;" parent="7TFr1C6rGWP-Rq-zpPYZ-44" vertex="1">
                    <mxGeometry y="178" width="320" height="122" as="geometry"/>
                </mxCell>
                <mxCell id="7TFr1C6rGWP-Rq-zpPYZ-48" value="" style="endArrow=none;html=1;rounded=0;strokeWidth=8;" parent="1" edge="1">
                    <mxGeometry width="50" height="50" relative="1" as="geometry">
                        <mxPoint x="850" y="2190" as="sourcePoint"/>
                        <mxPoint x="850" y="-1284" as="targetPoint"/>
                    </mxGeometry>
                </mxCell>
                <mxCell id="7TFr1C6rGWP-Rq-zpPYZ-71" style="edgeStyle=orthogonalEdgeStyle;rounded=0;orthogonalLoop=1;jettySize=auto;html=1;endArrow=diamondThin;endFill=1;endSize=16;strokeWidth=1;" parent="1" source="7TFr1C6rGWP-Rq-zpPYZ-49" target="7TFr1C6rGWP-Rq-zpPYZ-44" edge="1">
                    <mxGeometry relative="1" as="geometry"/>
                </mxCell>
                <mxCell id="7TFr1C6rGWP-Rq-zpPYZ-49" value="THREE.Scene" style="swimlane;fontStyle=1;align=center;verticalAlign=top;childLayout=stackLayout;horizontal=1;startSize=26;horizontalStack=0;resizeParent=1;resizeParentMax=0;resizeLast=0;collapsible=1;marginBottom=0;" parent="1" vertex="1">
                    <mxGeometry x="621" y="7" width="160" height="195" as="geometry">
                        <mxRectangle x="393" y="8.999999999999886" width="62" height="26" as="alternateBounds"/>
                    </mxGeometry>
                </mxCell>
                <mxCell id="7TFr1C6rGWP-Rq-zpPYZ-50" value="type='Scene'&#10;background: String&#10;environment: ??&#10;fig: Fog&#10;overrideMaterial: ??&#10;autoUpdate: true" style="text;strokeColor=none;fillColor=none;align=left;verticalAlign=top;spacingLeft=4;spacingRight=4;overflow=hidden;rotatable=0;points=[[0,0.5],[1,0.5]];portConstraint=eastwest;" parent="7TFr1C6rGWP-Rq-zpPYZ-49" vertex="1">
                    <mxGeometry y="26" width="160" height="92" as="geometry"/>
                </mxCell>
                <mxCell id="7TFr1C6rGWP-Rq-zpPYZ-51" value="" style="line;strokeWidth=1;fillColor=none;align=left;verticalAlign=middle;spacingTop=-1;spacingLeft=3;spacingRight=3;rotatable=0;labelPosition=right;points=[];portConstraint=eastwest;" parent="7TFr1C6rGWP-Rq-zpPYZ-49" vertex="1">
                    <mxGeometry y="118" width="160" height="8" as="geometry"/>
                </mxCell>
                <mxCell id="7TFr1C6rGWP-Rq-zpPYZ-52" value="constructor()&#10;copy( source, recursive )&#10;toJSON( meta )&#10;" style="text;strokeColor=none;fillColor=none;align=left;verticalAlign=top;spacingLeft=4;spacingRight=4;overflow=hidden;rotatable=0;points=[[0,0.5],[1,0.5]];portConstraint=eastwest;" parent="7TFr1C6rGWP-Rq-zpPYZ-49" vertex="1">
                    <mxGeometry y="126" width="160" height="69" as="geometry"/>
                </mxCell>
                <mxCell id="7TFr1C6rGWP-Rq-zpPYZ-54" value="THREE.Fog" style="swimlane;fontStyle=1;align=center;verticalAlign=top;childLayout=stackLayout;horizontal=1;startSize=26;horizontalStack=0;resizeParent=1;resizeParentMax=0;resizeLast=0;collapsible=1;marginBottom=0;" parent="1" vertex="1">
                    <mxGeometry x="444" y="-220" width="208" height="172" as="geometry"/>
                </mxCell>
                <mxCell id="7TFr1C6rGWP-Rq-zpPYZ-55" value="name: String&#10;color: THREE.Color&#10;near: Number&#10;far: Number" style="text;strokeColor=none;fillColor=none;align=left;verticalAlign=top;spacingLeft=4;spacingRight=4;overflow=hidden;rotatable=0;points=[[0,0.5],[1,0.5]];portConstraint=eastwest;" parent="7TFr1C6rGWP-Rq-zpPYZ-54" vertex="1">
                    <mxGeometry y="26" width="208" height="68" as="geometry"/>
                </mxCell>
                <mxCell id="7TFr1C6rGWP-Rq-zpPYZ-56" value="" style="line;strokeWidth=1;fillColor=none;align=left;verticalAlign=middle;spacingTop=-1;spacingLeft=3;spacingRight=3;rotatable=0;labelPosition=right;points=[];portConstraint=eastwest;" parent="7TFr1C6rGWP-Rq-zpPYZ-54" vertex="1">
                    <mxGeometry y="94" width="208" height="8" as="geometry"/>
                </mxCell>
                <mxCell id="7TFr1C6rGWP-Rq-zpPYZ-57" value="constructor( color, near=1, far=1000 )&#10;clone()&#10;toJSON( /* meta */ )" style="text;strokeColor=none;fillColor=none;align=left;verticalAlign=top;spacingLeft=4;spacingRight=4;overflow=hidden;rotatable=0;points=[[0,0.5],[1,0.5]];portConstraint=eastwest;" parent="7TFr1C6rGWP-Rq-zpPYZ-54" vertex="1">
                    <mxGeometry y="102" width="208" height="70" as="geometry"/>
                </mxCell>
                <mxCell id="7TFr1C6rGWP-Rq-zpPYZ-59" style="edgeStyle=orthogonalEdgeStyle;rounded=0;orthogonalLoop=1;jettySize=auto;html=1;exitX=1;exitY=0.5;exitDx=0;exitDy=0;entryX=0.5;entryY=0;entryDx=0;entryDy=0;strokeWidth=1;endArrow=diamondThin;endFill=1;endSize=16;" parent="1" source="7TFr1C6rGWP-Rq-zpPYZ-55" target="7TFr1C6rGWP-Rq-zpPYZ-49" edge="1">
                    <mxGeometry relative="1" as="geometry"/>
                </mxCell>
                <mxCell id="7TFr1C6rGWP-Rq-zpPYZ-60" value="THREE.FogExp2" style="swimlane;fontStyle=1;align=center;verticalAlign=top;childLayout=stackLayout;horizontal=1;startSize=26;horizontalStack=0;resizeParent=1;resizeParentMax=0;resizeLast=0;collapsible=1;marginBottom=0;" parent="1" vertex="1">
                    <mxGeometry x="444" y="-451" width="208" height="172" as="geometry"/>
                </mxCell>
                <mxCell id="7TFr1C6rGWP-Rq-zpPYZ-61" value="name: String&#10;color: THREE.Color&#10;density: Number" style="text;strokeColor=none;fillColor=none;align=left;verticalAlign=top;spacingLeft=4;spacingRight=4;overflow=hidden;rotatable=0;points=[[0,0.5],[1,0.5]];portConstraint=eastwest;" parent="7TFr1C6rGWP-Rq-zpPYZ-60" vertex="1">
                    <mxGeometry y="26" width="208" height="68" as="geometry"/>
                </mxCell>
                <mxCell id="7TFr1C6rGWP-Rq-zpPYZ-62" value="" style="line;strokeWidth=1;fillColor=none;align=left;verticalAlign=middle;spacingTop=-1;spacingLeft=3;spacingRight=3;rotatable=0;labelPosition=right;points=[];portConstraint=eastwest;" parent="7TFr1C6rGWP-Rq-zpPYZ-60" vertex="1">
                    <mxGeometry y="94" width="208" height="8" as="geometry"/>
                </mxCell>
                <mxCell id="7TFr1C6rGWP-Rq-zpPYZ-63" value="constructor(color,density=0.00025)&#10;clone()&#10;toJSON( /* meta */ )" style="text;strokeColor=none;fillColor=none;align=left;verticalAlign=top;spacingLeft=4;spacingRight=4;overflow=hidden;rotatable=0;points=[[0,0.5],[1,0.5]];portConstraint=eastwest;" parent="7TFr1C6rGWP-Rq-zpPYZ-60" vertex="1">
                    <mxGeometry y="102" width="208" height="70" as="geometry"/>
                </mxCell>
                <mxCell id="7TFr1C6rGWP-Rq-zpPYZ-64" style="edgeStyle=orthogonalEdgeStyle;rounded=0;orthogonalLoop=1;jettySize=auto;html=1;exitX=1;exitY=0.5;exitDx=0;exitDy=0;entryX=0.5;entryY=0;entryDx=0;entryDy=0;endArrow=diamondThin;endFill=1;endSize=16;strokeWidth=1;" parent="1" source="7TFr1C6rGWP-Rq-zpPYZ-61" target="7TFr1C6rGWP-Rq-zpPYZ-49" edge="1">
                    <mxGeometry relative="1" as="geometry"/>
                </mxCell>
                <mxCell id="7TFr1C6rGWP-Rq-zpPYZ-65" value="THREE.Mesh" style="swimlane;fontStyle=1;align=center;verticalAlign=top;childLayout=stackLayout;horizontal=1;startSize=26;horizontalStack=0;resizeParent=1;resizeParentMax=0;resizeLast=0;collapsible=1;marginBottom=0;" parent="1" vertex="1">
                    <mxGeometry x="-446" y="990" width="737" height="183" as="geometry"/>
                </mxCell>
                <mxCell id="7TFr1C6rGWP-Rq-zpPYZ-66" value="type='Mesh'&#10;geometry: THREE.BufferGeometry&#10;material: THREE.MeshBasicMaterial" style="text;strokeColor=none;fillColor=none;align=left;verticalAlign=top;spacingLeft=4;spacingRight=4;overflow=hidden;rotatable=0;points=[[0,0.5],[1,0.5]];portConstraint=eastwest;" parent="7TFr1C6rGWP-Rq-zpPYZ-65" vertex="1">
                    <mxGeometry y="26" width="737" height="53" as="geometry"/>
                </mxCell>
                <mxCell id="7TFr1C6rGWP-Rq-zpPYZ-67" value="" style="line;strokeWidth=1;fillColor=none;align=left;verticalAlign=middle;spacingTop=-1;spacingLeft=3;spacingRight=3;rotatable=0;labelPosition=right;points=[];portConstraint=eastwest;" parent="7TFr1C6rGWP-Rq-zpPYZ-65" vertex="1">
                    <mxGeometry y="79" width="737" height="8" as="geometry"/>
                </mxCell>
                <mxCell id="7TFr1C6rGWP-Rq-zpPYZ-68" value="constructor(geometry=new BufferGeometry(),material=new MeshBasicMaterial())&#10;copy( source )&#10;updateMorphTargets()&#10;raycast( raycaster, intersects )&#10;Mesh.checkIntersection( object, material, raycaster, ray, pA, pB, pC, point)&#10;Mesh.checkBufferGeometryIntersection( object, material, raycaster, ray, position, morphPosition, morphTargetsRelative, uv, uv2, a, b, c )" style="text;strokeColor=none;fillColor=none;align=left;verticalAlign=top;spacingLeft=4;spacingRight=4;overflow=hidden;rotatable=0;points=[[0,0.5],[1,0.5]];portConstraint=eastwest;" parent="7TFr1C6rGWP-Rq-zpPYZ-65" vertex="1">
                    <mxGeometry y="87" width="737" height="96" as="geometry"/>
                </mxCell>
                <mxCell id="7TFr1C6rGWP-Rq-zpPYZ-69" style="edgeStyle=orthogonalEdgeStyle;rounded=0;orthogonalLoop=1;jettySize=auto;html=1;entryX=0.5;entryY=0;entryDx=0;entryDy=0;endArrow=classic;endFill=1;endSize=16;strokeWidth=1;" parent="1" source="7TFr1C6rGWP-Rq-zpPYZ-6" target="7TFr1C6rGWP-Rq-zpPYZ-65" edge="1">
                    <mxGeometry relative="1" as="geometry"/>
                </mxCell>
                <mxCell id="7TFr1C6rGWP-Rq-zpPYZ-87" style="edgeStyle=orthogonalEdgeStyle;rounded=0;orthogonalLoop=1;jettySize=auto;html=1;endArrow=classic;endFill=1;endSize=16;strokeWidth=1;" parent="1" source="7TFr1C6rGWP-Rq-zpPYZ-78" target="7TFr1C6rGWP-Rq-zpPYZ-83" edge="1">
                    <mxGeometry relative="1" as="geometry"/>
                </mxCell>
                <mxCell id="7TFr1C6rGWP-Rq-zpPYZ-78" value="Entity" style="swimlane;fontStyle=1;align=center;verticalAlign=top;childLayout=stackLayout;horizontal=1;startSize=26;horizontalStack=0;resizeParent=1;resizeParentMax=0;resizeLast=0;collapsible=1;marginBottom=0;" parent="1" vertex="1">
                    <mxGeometry x="1830" y="479" width="160" height="110" as="geometry"/>
                </mxCell>
                <mxCell id="7TFr1C6rGWP-Rq-zpPYZ-79" value="box: THREE.Box3&#10;velocity: THREE.Vector3" style="text;strokeColor=none;fillColor=none;align=left;verticalAlign=top;spacingLeft=4;spacingRight=4;overflow=hidden;rotatable=0;points=[[0,0.5],[1,0.5]];portConstraint=eastwest;" parent="7TFr1C6rGWP-Rq-zpPYZ-78" vertex="1">
                    <mxGeometry y="26" width="160" height="37" as="geometry"/>
                </mxCell>
                <mxCell id="7TFr1C6rGWP-Rq-zpPYZ-80" value="" style="line;strokeWidth=1;fillColor=none;align=left;verticalAlign=middle;spacingTop=-1;spacingLeft=3;spacingRight=3;rotatable=0;labelPosition=right;points=[];portConstraint=eastwest;" parent="7TFr1C6rGWP-Rq-zpPYZ-78" vertex="1">
                    <mxGeometry y="63" width="160" height="8" as="geometry"/>
                </mxCell>
                <mxCell id="7TFr1C6rGWP-Rq-zpPYZ-81" value="constructor()&#10;update(delta)" style="text;strokeColor=none;fillColor=none;align=left;verticalAlign=top;spacingLeft=4;spacingRight=4;overflow=hidden;rotatable=0;points=[[0,0.5],[1,0.5]];portConstraint=eastwest;" parent="7TFr1C6rGWP-Rq-zpPYZ-78" vertex="1">
                    <mxGeometry y="71" width="160" height="39" as="geometry"/>
                </mxCell>
                <mxCell id="7TFr1C6rGWP-Rq-zpPYZ-82" style="edgeStyle=orthogonalEdgeStyle;rounded=0;orthogonalLoop=1;jettySize=auto;html=1;endArrow=classic;endFill=1;endSize=16;strokeWidth=1;" parent="1" source="7TFr1C6rGWP-Rq-zpPYZ-6" target="7TFr1C6rGWP-Rq-zpPYZ-78" edge="1">
                    <mxGeometry relative="1" as="geometry"/>
                </mxCell>
                <mxCell id="7TFr1C6rGWP-Rq-zpPYZ-83" value="CapsuleEntity" style="swimlane;fontStyle=1;align=center;verticalAlign=top;childLayout=stackLayout;horizontal=1;startSize=26;horizontalStack=0;resizeParent=1;resizeParentMax=0;resizeLast=0;collapsible=1;marginBottom=0;" parent="1" vertex="1">
                    <mxGeometry x="1809" y="649" width="202" height="232" as="geometry"/>
                </mxCell>
                <mxCell id="7TFr1C6rGWP-Rq-zpPYZ-84" value="horizontalVelocity: THREE.Vector3&#10;radius: Number&#10;size: Number&#10;onGround: Bool&#10;gravity: Number&#10;info: {&#10;    radius: Number&#10;    segment: THREE.Line3&#10;}&#10;friction: Number" style="text;strokeColor=none;fillColor=none;align=left;verticalAlign=top;spacingLeft=4;spacingRight=4;overflow=hidden;rotatable=0;points=[[0,0.5],[1,0.5]];portConstraint=eastwest;" parent="7TFr1C6rGWP-Rq-zpPYZ-83" vertex="1">
                    <mxGeometry y="26" width="202" height="156" as="geometry"/>
                </mxCell>
                <mxCell id="7TFr1C6rGWP-Rq-zpPYZ-85" value="" style="line;strokeWidth=1;fillColor=none;align=left;verticalAlign=middle;spacingTop=-1;spacingLeft=3;spacingRight=3;rotatable=0;labelPosition=right;points=[];portConstraint=eastwest;" parent="7TFr1C6rGWP-Rq-zpPYZ-83" vertex="1">
                    <mxGeometry y="182" width="202" height="8" as="geometry"/>
                </mxCell>
                <mxCell id="7TFr1C6rGWP-Rq-zpPYZ-86" value="constructor(radius, size)&#10;update(delta, bvh)" style="text;strokeColor=none;fillColor=none;align=left;verticalAlign=top;spacingLeft=4;spacingRight=4;overflow=hidden;rotatable=0;points=[[0,0.5],[1,0.5]];portConstraint=eastwest;" parent="7TFr1C6rGWP-Rq-zpPYZ-83" vertex="1">
                    <mxGeometry y="190" width="202" height="42" as="geometry"/>
                </mxCell>
                <mxCell id="7TFr1C6rGWP-Rq-zpPYZ-102" style="edgeStyle=orthogonalEdgeStyle;rounded=0;orthogonalLoop=1;jettySize=auto;html=1;endArrow=classic;endFill=1;endSize=16;strokeWidth=1;" parent="1" source="7TFr1C6rGWP-Rq-zpPYZ-88" target="7TFr1C6rGWP-Rq-zpPYZ-98" edge="1">
                    <mxGeometry relative="1" as="geometry"/>
                </mxCell>
                <mxCell id="7TFr1C6rGWP-Rq-zpPYZ-88" value="ControlableCapsule" style="swimlane;fontStyle=1;align=center;verticalAlign=top;childLayout=stackLayout;horizontal=1;startSize=26;horizontalStack=0;resizeParent=1;resizeParentMax=0;resizeLast=0;collapsible=1;marginBottom=0;" parent="1" vertex="1">
                    <mxGeometry x="1830" y="943" width="187" height="184" as="geometry"/>
                </mxCell>
                <mxCell id="7TFr1C6rGWP-Rq-zpPYZ-89" value="playerDirection: THREE.Vector3&#10;keys: Object&#10;visible: Bool&#10;jumped: Number&#10;friction: Number" style="text;strokeColor=none;fillColor=none;align=left;verticalAlign=top;spacingLeft=4;spacingRight=4;overflow=hidden;rotatable=0;points=[[0,0.5],[1,0.5]];portConstraint=eastwest;" parent="7TFr1C6rGWP-Rq-zpPYZ-88" vertex="1">
                    <mxGeometry y="26" width="187" height="82" as="geometry"/>
                </mxCell>
                <mxCell id="7TFr1C6rGWP-Rq-zpPYZ-90" value="" style="line;strokeWidth=1;fillColor=none;align=left;verticalAlign=middle;spacingTop=-1;spacingLeft=3;spacingRight=3;rotatable=0;labelPosition=right;points=[];portConstraint=eastwest;" parent="7TFr1C6rGWP-Rq-zpPYZ-88" vertex="1">
                    <mxGeometry y="108" width="187" height="8" as="geometry"/>
                </mxCell>
                <mxCell id="7TFr1C6rGWP-Rq-zpPYZ-91" value="constructor()&#10;getForwardVector(camera)&#10;getSideVector(camera)&#10; update(delta, camera, collider)" style="text;strokeColor=none;fillColor=none;align=left;verticalAlign=top;spacingLeft=4;spacingRight=4;overflow=hidden;rotatable=0;points=[[0,0.5],[1,0.5]];portConstraint=eastwest;" parent="7TFr1C6rGWP-Rq-zpPYZ-88" vertex="1">
                    <mxGeometry y="116" width="187" height="68" as="geometry"/>
                </mxCell>
                <mxCell id="7TFr1C6rGWP-Rq-zpPYZ-96" style="edgeStyle=orthogonalEdgeStyle;rounded=0;orthogonalLoop=1;jettySize=auto;html=1;entryX=0.5;entryY=0;entryDx=0;entryDy=0;endArrow=classic;endFill=1;endSize=16;strokeWidth=1;" parent="1" source="7TFr1C6rGWP-Rq-zpPYZ-83" target="7TFr1C6rGWP-Rq-zpPYZ-88" edge="1">
                    <mxGeometry relative="1" as="geometry"/>
                </mxCell>
                <mxCell id="7TFr1C6rGWP-Rq-zpPYZ-120" style="edgeStyle=orthogonalEdgeStyle;rounded=0;orthogonalLoop=1;jettySize=auto;html=1;endArrow=diamondThin;endFill=1;endSize=16;strokeWidth=1;" parent="1" source="7TFr1C6rGWP-Rq-zpPYZ-98" target="7TFr1C6rGWP-Rq-zpPYZ-44" edge="1">
                    <mxGeometry relative="1" as="geometry">
                        <Array as="points">
                            <mxPoint x="2084" y="1334"/>
                        </Array>
                    </mxGeometry>
                </mxCell>
                <mxCell id="7TFr1C6rGWP-Rq-zpPYZ-98" value="Player" style="swimlane;fontStyle=1;align=center;verticalAlign=top;childLayout=stackLayout;horizontal=1;startSize=26;horizontalStack=0;resizeParent=1;resizeParentMax=0;resizeLast=0;collapsible=1;marginBottom=0;" parent="1" vertex="1">
                    <mxGeometry x="1843.5" y="1297" width="218" height="74" as="geometry"/>
                </mxCell>
                <mxCell id="7TFr1C6rGWP-Rq-zpPYZ-100" value="" style="line;strokeWidth=1;fillColor=none;align=left;verticalAlign=middle;spacingTop=-1;spacingLeft=3;spacingRight=3;rotatable=0;labelPosition=right;points=[];portConstraint=eastwest;" parent="7TFr1C6rGWP-Rq-zpPYZ-98" vertex="1">
                    <mxGeometry y="26" width="218" height="8" as="geometry"/>
                </mxCell>
                <mxCell id="7TFr1C6rGWP-Rq-zpPYZ-101" value="constructor()&#10;update(delta, camera, collider, entities)" style="text;strokeColor=none;fillColor=none;align=left;verticalAlign=top;spacingLeft=4;spacingRight=4;overflow=hidden;rotatable=0;points=[[0,0.5],[1,0.5]];portConstraint=eastwest;" parent="7TFr1C6rGWP-Rq-zpPYZ-98" vertex="1">
                    <mxGeometry y="34" width="218" height="40" as="geometry"/>
                </mxCell>
                <mxCell id="7TFr1C6rGWP-Rq-zpPYZ-117" style="edgeStyle=orthogonalEdgeStyle;rounded=0;orthogonalLoop=1;jettySize=auto;html=1;entryX=0;entryY=0.5;entryDx=0;entryDy=0;endArrow=diamondThin;endFill=1;endSize=16;strokeWidth=1;" parent="1" source="7TFr1C6rGWP-Rq-zpPYZ-103" edge="1">
                    <mxGeometry relative="1" as="geometry">
                        <mxPoint x="1843.5" y="1336.0000000000005" as="targetPoint"/>
                    </mxGeometry>
                </mxCell>
                <mxCell id="7TFr1C6rGWP-Rq-zpPYZ-103" value="PlayerAvatar" style="swimlane;fontStyle=1;align=center;verticalAlign=top;childLayout=stackLayout;horizontal=1;startSize=26;horizontalStack=0;resizeParent=1;resizeParentMax=0;resizeLast=0;collapsible=1;marginBottom=0;" parent="1" vertex="1">
                    <mxGeometry x="1332" y="1293" width="344" height="229" as="geometry"/>
                </mxCell>
                <mxCell id="7TFr1C6rGWP-Rq-zpPYZ-104" value="model: THREE.Skeleton&#10;mixer: THREE.AnimationMixer&#10;controler: Controller&#10;scene: THREE.Scene&#10;delta: Number&#10;box: THREE.Box&#10;positionChange: THREE.Vector3&#10;jumpTick: Number&#10;opacity: Number" style="text;strokeColor=none;fillColor=none;align=left;verticalAlign=top;spacingLeft=4;spacingRight=4;overflow=hidden;rotatable=0;points=[[0,0.5],[1,0.5]];portConstraint=eastwest;" parent="7TFr1C6rGWP-Rq-zpPYZ-103" vertex="1">
                    <mxGeometry y="26" width="344" height="141" as="geometry"/>
                </mxCell>
                <mxCell id="7TFr1C6rGWP-Rq-zpPYZ-105" value="" style="line;strokeWidth=1;fillColor=none;align=left;verticalAlign=middle;spacingTop=-1;spacingLeft=3;spacingRight=3;rotatable=0;labelPosition=right;points=[];portConstraint=eastwest;" parent="7TFr1C6rGWP-Rq-zpPYZ-103" vertex="1">
                    <mxGeometry y="167" width="344" height="8" as="geometry"/>
                </mxCell>
                <mxCell id="7TFr1C6rGWP-Rq-zpPYZ-106" value="constructor(radius, size, model, animations, {        scene,        entities    })&#10;update(delta, frustum, fpsCamera)&#10;updateBox()" style="text;strokeColor=none;fillColor=none;align=left;verticalAlign=top;spacingLeft=4;spacingRight=4;overflow=hidden;rotatable=0;points=[[0,0.5],[1,0.5]];portConstraint=eastwest;" parent="7TFr1C6rGWP-Rq-zpPYZ-103" vertex="1">
                    <mxGeometry y="175" width="344" height="54" as="geometry"/>
                </mxCell>
                <mxCell id="7TFr1C6rGWP-Rq-zpPYZ-115" style="edgeStyle=orthogonalEdgeStyle;rounded=0;orthogonalLoop=1;jettySize=auto;html=1;endArrow=classic;endFill=1;endSize=16;strokeWidth=1;entryX=0;entryY=0.5;entryDx=0;entryDy=0;" parent="1" source="7TFr1C6rGWP-Rq-zpPYZ-6" target="7TFr1C6rGWP-Rq-zpPYZ-104" edge="1">
                    <mxGeometry relative="1" as="geometry">
                        <Array as="points">
                            <mxPoint x="434" y="438"/>
                            <mxPoint x="434" y="1266"/>
                            <mxPoint x="952" y="1266"/>
                        </Array>
                    </mxGeometry>
                </mxCell>
                <mxCell id="7TFr1C6rGWP-Rq-zpPYZ-131" style="edgeStyle=orthogonalEdgeStyle;rounded=0;orthogonalLoop=1;jettySize=auto;html=1;endArrow=classic;endFill=1;endSize=16;strokeWidth=1;" parent="1" source="7TFr1C6rGWP-Rq-zpPYZ-121" target="7TFr1C6rGWP-Rq-zpPYZ-126" edge="1">
                    <mxGeometry relative="1" as="geometry"/>
                </mxCell>
                <mxCell id="7TFr1C6rGWP-Rq-zpPYZ-121" value="Camera" style="swimlane;fontStyle=1;align=center;verticalAlign=top;childLayout=stackLayout;horizontal=1;startSize=26;horizontalStack=0;resizeParent=1;resizeParentMax=0;resizeLast=0;collapsible=1;marginBottom=0;" parent="1" vertex="1">
                    <mxGeometry x="27" y="-775" width="298" height="187" as="geometry"/>
                </mxCell>
                <mxCell id="7TFr1C6rGWP-Rq-zpPYZ-122" value="type='Camera'&#10;matrixWorldInverse: THREE.Matrix4&#10;projectionMatrix: THREE.Matrix4&#10;projectionMatrixInverse: THREE.Matrix4" style="text;strokeColor=none;fillColor=none;align=left;verticalAlign=top;spacingLeft=4;spacingRight=4;overflow=hidden;rotatable=0;points=[[0,0.5],[1,0.5]];portConstraint=eastwest;" parent="7TFr1C6rGWP-Rq-zpPYZ-121" vertex="1">
                    <mxGeometry y="26" width="298" height="71" as="geometry"/>
                </mxCell>
                <mxCell id="7TFr1C6rGWP-Rq-zpPYZ-123" value="" style="line;strokeWidth=1;fillColor=none;align=left;verticalAlign=middle;spacingTop=-1;spacingLeft=3;spacingRight=3;rotatable=0;labelPosition=right;points=[];portConstraint=eastwest;" parent="7TFr1C6rGWP-Rq-zpPYZ-121" vertex="1">
                    <mxGeometry y="97" width="298" height="8" as="geometry"/>
                </mxCell>
                <mxCell id="7TFr1C6rGWP-Rq-zpPYZ-124" value="copy( source, recursive )&#10;getWorldDirection( target )&#10;updateMatrixWorld( force )&#10;updateWorldMatrix( updateParents, updateChildren )&#10;clone()&#10;&#10;" style="text;strokeColor=none;fillColor=none;align=left;verticalAlign=top;spacingLeft=4;spacingRight=4;overflow=hidden;rotatable=0;points=[[0,0.5],[1,0.5]];portConstraint=eastwest;" parent="7TFr1C6rGWP-Rq-zpPYZ-121" vertex="1">
                    <mxGeometry y="105" width="298" height="82" as="geometry"/>
                </mxCell>
                <mxCell id="7TFr1C6rGWP-Rq-zpPYZ-126" value="PerspectiveCamera" style="swimlane;fontStyle=1;align=center;verticalAlign=top;childLayout=stackLayout;horizontal=1;startSize=26;horizontalStack=0;resizeParent=1;resizeParentMax=0;resizeLast=0;collapsible=1;marginBottom=0;" parent="1" vertex="1">
                    <mxGeometry x="477" y="-806" width="160" height="309" as="geometry"/>
                </mxCell>
                <mxCell id="7TFr1C6rGWP-Rq-zpPYZ-127" value="type='PerspectiveCamera'&#10;fov: Number&#10;zoom: Number&#10;near: Number&#10;far: Number&#10;aspect: Number&#10;view: Object&#10;filmGauge: Number&#10;filmOffset: Number" style="text;strokeColor=none;fillColor=none;align=left;verticalAlign=top;spacingLeft=4;spacingRight=4;overflow=hidden;rotatable=0;points=[[0,0.5],[1,0.5]];portConstraint=eastwest;" parent="7TFr1C6rGWP-Rq-zpPYZ-126" vertex="1">
                    <mxGeometry y="26" width="160" height="136" as="geometry"/>
                </mxCell>
                <mxCell id="7TFr1C6rGWP-Rq-zpPYZ-128" value="" style="line;strokeWidth=1;fillColor=none;align=left;verticalAlign=middle;spacingTop=-1;spacingLeft=3;spacingRight=3;rotatable=0;labelPosition=right;points=[];portConstraint=eastwest;" parent="7TFr1C6rGWP-Rq-zpPYZ-126" vertex="1">
                    <mxGeometry y="162" width="160" height="8" as="geometry"/>
                </mxCell>
                <mxCell id="7TFr1C6rGWP-Rq-zpPYZ-129" value="copy( source, recursive )&#10;getFocalLength()&#10;getEffectiveFOV()&#10;getFilmWidth()&#10;getFilmHeight()&#10;setViewOffset( fullWidth, fullHeight, x, y, width, height )&#10;clearViewOffset()&#10;updateProjectionMatrix()&#10;toJSON( meta )" style="text;strokeColor=none;fillColor=none;align=left;verticalAlign=top;spacingLeft=4;spacingRight=4;overflow=hidden;rotatable=0;points=[[0,0.5],[1,0.5]];portConstraint=eastwest;" parent="7TFr1C6rGWP-Rq-zpPYZ-126" vertex="1">
                    <mxGeometry y="170" width="160" height="139" as="geometry"/>
                </mxCell>
                <mxCell id="7TFr1C6rGWP-Rq-zpPYZ-132" style="edgeStyle=orthogonalEdgeStyle;rounded=0;orthogonalLoop=1;jettySize=auto;html=1;endArrow=diamondThin;endFill=1;endSize=16;strokeWidth=1;" parent="1" source="7TFr1C6rGWP-Rq-zpPYZ-127" target="7TFr1C6rGWP-Rq-zpPYZ-44" edge="1">
                    <mxGeometry relative="1" as="geometry">
                        <mxPoint x="1904" y="-50" as="targetPoint"/>
                        <Array as="points">
                            <mxPoint x="1683" y="-685"/>
                            <mxPoint x="1683"/>
                        </Array>
                    </mxGeometry>
                </mxCell>
                <mxCell id="7TFr1C6rGWP-Rq-zpPYZ-136" value="&lt;font style=&quot;font-size: 50px&quot;&gt;ThreeJS&lt;/font&gt;" style="text;html=1;strokeColor=none;fillColor=none;align=center;verticalAlign=middle;whiteSpace=wrap;rounded=0;" parent="1" vertex="1">
                    <mxGeometry x="60" y="-1288" width="432" height="108" as="geometry"/>
                </mxCell>
                <mxCell id="7TFr1C6rGWP-Rq-zpPYZ-137" value="&lt;font style=&quot;font-size: 50px&quot;&gt;Spacetime Standard Kit&lt;/font&gt;" style="text;html=1;strokeColor=none;fillColor=none;align=center;verticalAlign=middle;whiteSpace=wrap;rounded=0;" parent="1" vertex="1">
                    <mxGeometry x="1167" y="-1288" width="570" height="108" as="geometry"/>
                </mxCell>
                <mxCell id="GosrUJCcwg7DmdABZyiW-1" value="THREE.AnimationMixer" style="swimlane;fontStyle=1;align=center;verticalAlign=top;childLayout=stackLayout;horizontal=1;startSize=26;horizontalStack=0;resizeParent=1;resizeParentMax=0;resizeLast=0;collapsible=1;marginBottom=0;" parent="1" vertex="1">
                    <mxGeometry x="521" y="643" width="227" height="512" as="geometry"/>
                </mxCell>
                <mxCell id="GosrUJCcwg7DmdABZyiW-2" value="_root: Root&#10;_accuIndex: Number&#10;&#10;time: Number&#10;timeScale: Number&#10;" style="text;strokeColor=none;fillColor=none;align=left;verticalAlign=top;spacingLeft=4;spacingRight=4;overflow=hidden;rotatable=0;points=[[0,0.5],[1,0.5]];portConstraint=eastwest;" parent="GosrUJCcwg7DmdABZyiW-1" vertex="1">
                    <mxGeometry y="26" width="227" height="83" as="geometry"/>
                </mxCell>
                <mxCell id="GosrUJCcwg7DmdABZyiW-3" value="" style="line;strokeWidth=1;fillColor=none;align=left;verticalAlign=middle;spacingTop=-1;spacingLeft=3;spacingRight=3;rotatable=0;labelPosition=right;points=[];portConstraint=eastwest;" parent="GosrUJCcwg7DmdABZyiW-1" vertex="1">
                    <mxGeometry y="109" width="227" height="8" as="geometry"/>
                </mxCell>
                <mxCell id="GosrUJCcwg7DmdABZyiW-4" value="constructor( root )&#10;_bindAction( action, prototypeAction )&#10;_activateAction( action )&#10;_deactivateAction( action )&#10;_initMemoryManager()&#10;_isActiveAction( action )&#10;_addInactiveAction( action, clipUuid, rootUuid )&#10;_removeInactiveAction( action )&#10;_removeInactiveBindingsForAction( action )&#10;_lendAction( action )&#10;_takeBackAction( action )&#10;_addInactiveBinding( binding, rootUuid, trackName )&#10;_removeInactiveBinding( binding )&#10;_lendBinding( binding )&#10;_takeBackBinding( binding )&#10;_lendControlInterpolant()&#10;_takeBackControlInterpolant( interpolant )&#10;&#10;clipAction( clip, optionalRoot, blendMode )&#10;existingAction( clip, optionalRoot )&#10;stopAllAction()&#10;update( deltaTime )&#10;setTime( timeInSeconds )&#10;getRoot()&#10;uncacheClip( clip )&#10;uncacheRoot( root )&#10;uncacheAction( clip, optionalRoot )" style="text;strokeColor=none;fillColor=none;align=left;verticalAlign=top;spacingLeft=4;spacingRight=4;overflow=hidden;rotatable=0;points=[[0,0.5],[1,0.5]];portConstraint=eastwest;" parent="GosrUJCcwg7DmdABZyiW-1" vertex="1">
                    <mxGeometry y="117" width="227" height="395" as="geometry"/>
                </mxCell>
                <mxCell id="GosrUJCcwg7DmdABZyiW-6" style="edgeStyle=orthogonalEdgeStyle;rounded=0;orthogonalLoop=1;jettySize=auto;html=1;endSize=16;endArrow=diamondThin;endFill=1;" parent="1" source="GosrUJCcwg7DmdABZyiW-1" target="7TFr1C6rGWP-Rq-zpPYZ-103" edge="1">
                    <mxGeometry relative="1" as="geometry">
                        <mxPoint x="766" y="797" as="sourcePoint"/>
                        <mxPoint x="891" y="659.5999999999999" as="targetPoint"/>
                        <Array as="points">
                            <mxPoint x="1026" y="1086"/>
                            <mxPoint x="1026" y="1336"/>
                        </Array>
                    </mxGeometry>
                </mxCell>
                <mxCell id="GosrUJCcwg7DmdABZyiW-12" style="edgeStyle=orthogonalEdgeStyle;rounded=0;orthogonalLoop=1;jettySize=auto;html=1;endArrow=diamondThin;endFill=1;endSize=16;" parent="1" source="GosrUJCcwg7DmdABZyiW-7" target="7TFr1C6rGWP-Rq-zpPYZ-103" edge="1">
                    <mxGeometry relative="1" as="geometry"/>
                </mxCell>
                <mxCell id="GosrUJCcwg7DmdABZyiW-7" value="Controller" style="swimlane;fontStyle=1;align=center;verticalAlign=top;childLayout=stackLayout;horizontal=1;startSize=26;horizontalStack=0;resizeParent=1;resizeParentMax=0;resizeLast=0;collapsible=1;marginBottom=0;" parent="1" vertex="1">
                    <mxGeometry x="1472" y="1029" width="191" height="126" as="geometry"/>
                </mxCell>
                <mxCell id="GosrUJCcwg7DmdABZyiW-8" value="current: String&#10;animation: Object&#10;mixer: THREE.AnimationMixer" style="text;strokeColor=none;fillColor=none;align=left;verticalAlign=top;spacingLeft=4;spacingRight=4;overflow=hidden;rotatable=0;points=[[0,0.5],[1,0.5]];portConstraint=eastwest;" parent="GosrUJCcwg7DmdABZyiW-7" vertex="1">
                    <mxGeometry y="26" width="191" height="52" as="geometry"/>
                </mxCell>
                <mxCell id="GosrUJCcwg7DmdABZyiW-9" value="" style="line;strokeWidth=1;fillColor=none;align=left;verticalAlign=middle;spacingTop=-1;spacingLeft=3;spacingRight=3;rotatable=0;labelPosition=right;points=[];portConstraint=eastwest;" parent="GosrUJCcwg7DmdABZyiW-7" vertex="1">
                    <mxGeometry y="78" width="191" height="8" as="geometry"/>
                </mxCell>
                <mxCell id="GosrUJCcwg7DmdABZyiW-10" value="constructor(mixer, animations)&#10;play(anim, time = 0.5)&#10;" style="text;strokeColor=none;fillColor=none;align=left;verticalAlign=top;spacingLeft=4;spacingRight=4;overflow=hidden;rotatable=0;points=[[0,0.5],[1,0.5]];portConstraint=eastwest;" parent="GosrUJCcwg7DmdABZyiW-7" vertex="1">
                    <mxGeometry y="86" width="191" height="40" as="geometry"/>
                </mxCell>
                <mxCell id="GosrUJCcwg7DmdABZyiW-17" style="edgeStyle=orthogonalEdgeStyle;rounded=0;orthogonalLoop=1;jettySize=auto;html=1;endArrow=diamondThin;endFill=1;endSize=16;" parent="1" source="GosrUJCcwg7DmdABZyiW-13" target="7TFr1C6rGWP-Rq-zpPYZ-44" edge="1">
                    <mxGeometry relative="1" as="geometry">
                        <mxPoint x="1843.199462890625" y="-148.0001220703125" as="targetPoint"/>
                        <Array as="points">
                            <mxPoint x="1877" y="-878"/>
                        </Array>
                    </mxGeometry>
                </mxCell>
                <mxCell id="GosrUJCcwg7DmdABZyiW-13" value="THREE.PointerlockControls" style="swimlane;fontStyle=1;align=center;verticalAlign=top;childLayout=stackLayout;horizontal=1;startSize=26;horizontalStack=0;resizeParent=1;resizeParentMax=0;resizeLast=0;collapsible=1;marginBottom=0;" parent="1" vertex="1">
                    <mxGeometry x="-249" y="-1041" width="199" height="326" as="geometry"/>
                </mxCell>
                <mxCell id="GosrUJCcwg7DmdABZyiW-14" value="domElement: Object&#10;isLocked: Bool&#10;minPolarAngle: Number (radians)&#10;maxPolarAngle: Number (radians)&#10;sensitivityX: Number&#10;sensitivityY: Number&#10;&#10;" style="text;strokeColor=none;fillColor=none;align=left;verticalAlign=top;spacingLeft=4;spacingRight=4;overflow=hidden;rotatable=0;points=[[0,0.5],[1,0.5]];portConstraint=eastwest;" parent="GosrUJCcwg7DmdABZyiW-13" vertex="1">
                    <mxGeometry y="26" width="199" height="97" as="geometry"/>
                </mxCell>
                <mxCell id="GosrUJCcwg7DmdABZyiW-15" value="" style="line;strokeWidth=1;fillColor=none;align=left;verticalAlign=middle;spacingTop=-1;spacingLeft=3;spacingRight=3;rotatable=0;labelPosition=right;points=[];portConstraint=eastwest;" parent="GosrUJCcwg7DmdABZyiW-13" vertex="1">
                    <mxGeometry y="123" width="199" height="8" as="geometry"/>
                </mxCell>
                <mxCell id="GosrUJCcwg7DmdABZyiW-16" value="constructor(camera, domElement)&#10;onMouseMove(event)&#10;onPointerlockChange()&#10;onPointerlockError()&#10;connect()&#10;disconnect()&#10;dispose()&#10;getObject()&#10;getDirection()&#10;moveForward(distance)&#10;moveRight(distance)&#10;lock()&#10;unlock()" style="text;strokeColor=none;fillColor=none;align=left;verticalAlign=top;spacingLeft=4;spacingRight=4;overflow=hidden;rotatable=0;points=[[0,0.5],[1,0.5]];portConstraint=eastwest;" parent="GosrUJCcwg7DmdABZyiW-13" vertex="1">
                    <mxGeometry y="131" width="199" height="195" as="geometry"/>
                </mxCell>
                <mxCell id="GosrUJCcwg7DmdABZyiW-19" style="edgeStyle=orthogonalEdgeStyle;rounded=0;orthogonalLoop=1;jettySize=auto;html=1;endSize=16;endArrow=diamondThin;endFill=1;" parent="1" source="GosrUJCcwg7DmdABZyiW-1" target="GosrUJCcwg7DmdABZyiW-7" edge="1">
                    <mxGeometry relative="1" as="geometry">
                        <mxPoint x="811" y="1072" as="sourcePoint"/>
                        <mxPoint x="1342" y="1381" as="targetPoint"/>
                        <Array as="points">
                            <mxPoint x="889" y="1086"/>
                            <mxPoint x="889" y="1086"/>
                        </Array>
                    </mxGeometry>
                </mxCell>
            </root>
        </mxGraphModel>
    </diagram>
</mxfile>